<mxfile host="app.diagrams.net" modified="2023-02-10T15:49:15.455Z" agent="5.0 (Macintosh; Intel Mac OS X 10_15_7) AppleWebKit/605.1.15 (KHTML, like Gecko) Version/16.2 Safari/605.1.15" etag="gVQZzznLr-3LJo-7rlXN" version="20.8.20" type="github">
  <diagram name="Page-1" id="IfO4KlaMefnt0QP_XdHf">
    <mxGraphModel dx="1230" dy="779" grid="1" gridSize="10" guides="1" tooltips="1" connect="1" arrows="1" fold="1" page="1" pageScale="1" pageWidth="827" pageHeight="1169" math="0" shadow="0">
      <root>
        <mxCell id="0" />
        <mxCell id="1" parent="0" />
        <mxCell id="ulQrxE13SRcMPfscdwj9-69" style="edgeStyle=orthogonalEdgeStyle;rounded=0;orthogonalLoop=1;jettySize=auto;html=1;exitX=0.5;exitY=1;exitDx=0;exitDy=0;entryX=0.5;entryY=1;entryDx=0;entryDy=0;" parent="1" source="ulQrxE13SRcMPfscdwj9-1" target="ulQrxE13SRcMPfscdwj9-67" edge="1">
          <mxGeometry relative="1" as="geometry" />
        </mxCell>
        <mxCell id="ulQrxE13SRcMPfscdwj9-1" value="iPM" style="whiteSpace=wrap;html=1;aspect=fixed;" parent="1" vertex="1">
          <mxGeometry x="170" y="890" width="95" height="95" as="geometry" />
        </mxCell>
        <mxCell id="ulQrxE13SRcMPfscdwj9-2" value="Lorenzo" style="whiteSpace=wrap;html=1;aspect=fixed;" parent="1" vertex="1">
          <mxGeometry x="277.5" y="890" width="95" height="95" as="geometry" />
        </mxCell>
        <mxCell id="ulQrxE13SRcMPfscdwj9-3" value="LIMS" style="whiteSpace=wrap;html=1;aspect=fixed;" parent="1" vertex="1">
          <mxGeometry x="385" y="890" width="95" height="95" as="geometry" />
        </mxCell>
        <mxCell id="ulQrxE13SRcMPfscdwj9-4" value="PATH" style="whiteSpace=wrap;html=1;aspect=fixed;" parent="1" vertex="1">
          <mxGeometry x="600" y="890" width="95" height="95" as="geometry" />
        </mxCell>
        <mxCell id="ulQrxE13SRcMPfscdwj9-6" value="Picasso (Event Data ie HL7/FHIR)" style="rounded=0;whiteSpace=wrap;html=1;" parent="1" vertex="1">
          <mxGeometry x="277.5" y="730" width="280" height="60" as="geometry" />
        </mxCell>
        <mxCell id="ulQrxE13SRcMPfscdwj9-12" value="Bulk/Backload" style="rounded=0;whiteSpace=wrap;html=1;" parent="1" vertex="1">
          <mxGeometry x="610" y="730" width="120" height="60" as="geometry" />
        </mxCell>
        <mxCell id="ulQrxE13SRcMPfscdwj9-19" value="Other Connectors (Dynamic Query etc)" style="rounded=0;whiteSpace=wrap;html=1;" parent="1" vertex="1">
          <mxGeometry x="760" y="730" width="130" height="60" as="geometry" />
        </mxCell>
        <mxCell id="ulQrxE13SRcMPfscdwj9-20" value="DC4H 1.2" style="rounded=0;whiteSpace=wrap;html=1;" parent="1" vertex="1">
          <mxGeometry x="270" y="530" width="620" height="160" as="geometry" />
        </mxCell>
        <mxCell id="ulQrxE13SRcMPfscdwj9-22" value="Patient Identifiication" style="rounded=0;whiteSpace=wrap;html=1;" parent="1" vertex="1">
          <mxGeometry x="290" y="580" width="120" height="60" as="geometry" />
        </mxCell>
        <mxCell id="ulQrxE13SRcMPfscdwj9-23" value="Data Repository (FHIR CDR)&lt;br&gt;Is it needed?" style="rounded=0;whiteSpace=wrap;html=1;fillColor=#ffe6cc;strokeColor=#d79b00;" parent="1" vertex="1">
          <mxGeometry x="760" y="540" width="120" height="60" as="geometry" />
        </mxCell>
        <mxCell id="ulQrxE13SRcMPfscdwj9-24" value="Foundry" style="rounded=0;whiteSpace=wrap;html=1;" parent="1" vertex="1">
          <mxGeometry x="270" y="80" width="620" height="250" as="geometry" />
        </mxCell>
        <mxCell id="ulQrxE13SRcMPfscdwj9-26" value="Ontology Manager" style="rounded=0;whiteSpace=wrap;html=1;" parent="1" vertex="1">
          <mxGeometry x="280" y="260" width="160" height="60" as="geometry" />
        </mxCell>
        <mxCell id="ulQrxE13SRcMPfscdwj9-28" value="API Manager / Message Broker?" style="rounded=0;whiteSpace=wrap;html=1;" parent="1" vertex="1">
          <mxGeometry x="270" y="420" width="620" height="60" as="geometry" />
        </mxCell>
        <mxCell id="ulQrxE13SRcMPfscdwj9-29" value="" style="endArrow=classic;html=1;rounded=0;entryX=0.5;entryY=1;entryDx=0;entryDy=0;exitX=0.5;exitY=0;exitDx=0;exitDy=0;" parent="1" source="ulQrxE13SRcMPfscdwj9-20" target="ulQrxE13SRcMPfscdwj9-28" edge="1">
          <mxGeometry width="50" height="50" relative="1" as="geometry">
            <mxPoint x="530" y="630" as="sourcePoint" />
            <mxPoint x="580" y="580" as="targetPoint" />
          </mxGeometry>
        </mxCell>
        <mxCell id="ulQrxE13SRcMPfscdwj9-30" value="Ontoserver (Terminology)" style="rounded=0;whiteSpace=wrap;html=1;" parent="1" vertex="1">
          <mxGeometry x="760" y="620" width="120" height="60" as="geometry" />
        </mxCell>
        <mxCell id="ulQrxE13SRcMPfscdwj9-31" value="Waiting Lists" style="rounded=0;whiteSpace=wrap;html=1;fillColor=#d5e8d4;strokeColor=#82b366;" parent="1" vertex="1">
          <mxGeometry x="940" y="570" width="120" height="30" as="geometry" />
        </mxCell>
        <mxCell id="ulQrxE13SRcMPfscdwj9-32" value="Rostering" style="rounded=0;whiteSpace=wrap;html=1;fillColor=#d5e8d4;strokeColor=#82b366;" parent="1" vertex="1">
          <mxGeometry x="940" y="610" width="120" height="30" as="geometry" />
        </mxCell>
        <mxCell id="ulQrxE13SRcMPfscdwj9-33" value="Scheduling" style="rounded=0;whiteSpace=wrap;html=1;fillColor=#d5e8d4;strokeColor=#82b366;" parent="1" vertex="1">
          <mxGeometry x="940" y="650" width="120" height="30" as="geometry" />
        </mxCell>
        <mxCell id="ulQrxE13SRcMPfscdwj9-34" value="Capacity / Bed Management" style="rounded=0;whiteSpace=wrap;html=1;fillColor=#d5e8d4;strokeColor=#82b366;" parent="1" vertex="1">
          <mxGeometry x="940" y="690" width="120" height="30" as="geometry" />
        </mxCell>
        <mxCell id="ulQrxE13SRcMPfscdwj9-35" value="Equipment" style="rounded=0;whiteSpace=wrap;html=1;fillColor=#d5e8d4;strokeColor=#82b366;" parent="1" vertex="1">
          <mxGeometry x="940" y="730" width="120" height="30" as="geometry" />
        </mxCell>
        <mxCell id="ulQrxE13SRcMPfscdwj9-36" value="Patient" style="rounded=0;whiteSpace=wrap;html=1;fillColor=#e1d5e7;strokeColor=#9673a6;" parent="1" vertex="1">
          <mxGeometry x="70" y="340" width="120" height="30" as="geometry" />
        </mxCell>
        <mxCell id="ulQrxE13SRcMPfscdwj9-37" value="Problems" style="rounded=0;whiteSpace=wrap;html=1;fillColor=#e1d5e7;strokeColor=#9673a6;" parent="1" vertex="1">
          <mxGeometry x="70" y="380" width="120" height="30" as="geometry" />
        </mxCell>
        <mxCell id="ulQrxE13SRcMPfscdwj9-38" value="Procedures" style="rounded=0;whiteSpace=wrap;html=1;fillColor=#e1d5e7;strokeColor=#9673a6;" parent="1" vertex="1">
          <mxGeometry x="70" y="420" width="120" height="30" as="geometry" />
        </mxCell>
        <mxCell id="ulQrxE13SRcMPfscdwj9-39" value="Encounters" style="rounded=0;whiteSpace=wrap;html=1;fillColor=#e1d5e7;strokeColor=#9673a6;" parent="1" vertex="1">
          <mxGeometry x="70" y="460" width="120" height="30" as="geometry" />
        </mxCell>
        <mxCell id="ulQrxE13SRcMPfscdwj9-40" value="Appointments" style="rounded=0;whiteSpace=wrap;html=1;fillColor=#e1d5e7;strokeColor=#9673a6;" parent="1" vertex="1">
          <mxGeometry x="70" y="500" width="120" height="30" as="geometry" />
        </mxCell>
        <mxCell id="ulQrxE13SRcMPfscdwj9-41" value="Orders" style="rounded=0;whiteSpace=wrap;html=1;fillColor=#e1d5e7;strokeColor=#9673a6;" parent="1" vertex="1">
          <mxGeometry x="70" y="540" width="120" height="30" as="geometry" />
        </mxCell>
        <mxCell id="ulQrxE13SRcMPfscdwj9-42" value="Results" style="rounded=0;whiteSpace=wrap;html=1;fillColor=#e1d5e7;strokeColor=#9673a6;" parent="1" vertex="1">
          <mxGeometry x="70" y="580" width="120" height="30" as="geometry" />
        </mxCell>
        <mxCell id="ulQrxE13SRcMPfscdwj9-43" value="Imaging" style="rounded=0;whiteSpace=wrap;html=1;fillColor=#e1d5e7;strokeColor=#9673a6;" parent="1" vertex="1">
          <mxGeometry x="70" y="620" width="120" height="30" as="geometry" />
        </mxCell>
        <mxCell id="ulQrxE13SRcMPfscdwj9-44" value="Medication" style="rounded=0;whiteSpace=wrap;html=1;fillColor=#e1d5e7;strokeColor=#9673a6;" parent="1" vertex="1">
          <mxGeometry x="70" y="660" width="120" height="30" as="geometry" />
        </mxCell>
        <mxCell id="ulQrxE13SRcMPfscdwj9-45" value="Ambulance (1ED)" style="whiteSpace=wrap;html=1;aspect=fixed;" parent="1" vertex="1">
          <mxGeometry x="700" y="890" width="95" height="95" as="geometry" />
        </mxCell>
        <mxCell id="ulQrxE13SRcMPfscdwj9-46" value="Stock (Pharmacy)" style="rounded=0;whiteSpace=wrap;html=1;fillColor=#d5e8d4;strokeColor=#82b366;" parent="1" vertex="1">
          <mxGeometry x="940" y="770" width="120" height="30" as="geometry" />
        </mxCell>
        <mxCell id="ulQrxE13SRcMPfscdwj9-47" value="Stock (PPE)" style="rounded=0;whiteSpace=wrap;html=1;fillColor=#d5e8d4;strokeColor=#82b366;" parent="1" vertex="1">
          <mxGeometry x="940" y="810" width="120" height="30" as="geometry" />
        </mxCell>
        <mxCell id="ulQrxE13SRcMPfscdwj9-48" value="Pharmacy?" style="whiteSpace=wrap;html=1;aspect=fixed;" parent="1" vertex="1">
          <mxGeometry x="805" y="890" width="95" height="95" as="geometry" />
        </mxCell>
        <mxCell id="ulQrxE13SRcMPfscdwj9-49" value="Observations" style="rounded=0;whiteSpace=wrap;html=1;fillColor=#e1d5e7;strokeColor=#9673a6;" parent="1" vertex="1">
          <mxGeometry x="70" y="700" width="120" height="30" as="geometry" />
        </mxCell>
        <mxCell id="ulQrxE13SRcMPfscdwj9-50" value="Care Plans" style="rounded=0;whiteSpace=wrap;html=1;fillColor=#e1d5e7;strokeColor=#9673a6;" parent="1" vertex="1">
          <mxGeometry x="70" y="740" width="120" height="30" as="geometry" />
        </mxCell>
        <mxCell id="ulQrxE13SRcMPfscdwj9-51" value="Home Monitoring" style="whiteSpace=wrap;html=1;aspect=fixed;" parent="1" vertex="1">
          <mxGeometry x="910" y="890" width="95" height="95" as="geometry" />
        </mxCell>
        <mxCell id="ulQrxE13SRcMPfscdwj9-52" value="Swiftqueue" style="whiteSpace=wrap;html=1;aspect=fixed;" parent="1" vertex="1">
          <mxGeometry x="1020" y="890" width="95" height="95" as="geometry" />
        </mxCell>
        <mxCell id="ulQrxE13SRcMPfscdwj9-53" value="Theatre" style="whiteSpace=wrap;html=1;aspect=fixed;" parent="1" vertex="1">
          <mxGeometry x="1130" y="890" width="95" height="95" as="geometry" />
        </mxCell>
        <mxCell id="ulQrxE13SRcMPfscdwj9-54" value="Spine / PDS" style="rounded=0;whiteSpace=wrap;html=1;" parent="1" vertex="1">
          <mxGeometry x="1180" y="600" width="219" height="60" as="geometry" />
        </mxCell>
        <mxCell id="ulQrxE13SRcMPfscdwj9-55" value="PET&lt;br&gt;Consent / Policy Management" style="rounded=0;whiteSpace=wrap;html=1;fillColor=#f8cecc;strokeColor=#b85450;" parent="1" vertex="1">
          <mxGeometry x="1180" y="430" width="219" height="80" as="geometry" />
        </mxCell>
        <mxCell id="ulQrxE13SRcMPfscdwj9-56" value="LRS (?)" style="rounded=0;whiteSpace=wrap;html=1;" parent="1" vertex="1">
          <mxGeometry x="1180" y="530" width="219" height="60" as="geometry" />
        </mxCell>
        <mxCell id="ulQrxE13SRcMPfscdwj9-57" value="ODS" style="rounded=0;whiteSpace=wrap;html=1;" parent="1" vertex="1">
          <mxGeometry x="1180" y="670" width="219" height="60" as="geometry" />
        </mxCell>
        <mxCell id="ulQrxE13SRcMPfscdwj9-58" value="ERS (eReferrals)" style="rounded=0;whiteSpace=wrap;html=1;" parent="1" vertex="1">
          <mxGeometry x="1180" y="740" width="219" height="60" as="geometry" />
        </mxCell>
        <mxCell id="ulQrxE13SRcMPfscdwj9-59" value="Referrals" style="rounded=0;whiteSpace=wrap;html=1;fillColor=#e1d5e7;strokeColor=#9673a6;" parent="1" vertex="1">
          <mxGeometry x="70" y="780" width="120" height="30" as="geometry" />
        </mxCell>
        <mxCell id="ulQrxE13SRcMPfscdwj9-60" value="Documents" style="rounded=0;whiteSpace=wrap;html=1;fillColor=#e1d5e7;strokeColor=#9673a6;" parent="1" vertex="1">
          <mxGeometry x="70" y="820" width="120" height="30" as="geometry" />
        </mxCell>
        <mxCell id="ulQrxE13SRcMPfscdwj9-65" value="&lt;h2 style=&quot;&quot;&gt;&lt;span style=&quot;background-color: initial;&quot;&gt;&lt;b&gt;Integration Approaches&lt;/b&gt;&lt;/span&gt;&lt;/h2&gt;&lt;b&gt;1. Staging Option&lt;/b&gt;&lt;br&gt;We normalise/standardise&lt;br&gt;Map to FHIR and persist in FHIR CDR&lt;br&gt;We make available in message broker/API manager&lt;br&gt;&lt;br&gt;&lt;b style=&quot;border-color: var(--border-color);&quot;&gt;2. Passthrough Option&lt;/b&gt;&lt;br style=&quot;border-color: var(--border-color);&quot;&gt;We normalise/standardise&lt;br style=&quot;border-color: var(--border-color);&quot;&gt;Map to Foundry Ontology/Archetypes&lt;br style=&quot;border-color: var(--border-color);&quot;&gt;We make available in message broker/stream" style="whiteSpace=wrap;html=1;aspect=fixed;align=left;dashed=1;dashPattern=1 4;verticalAlign=top;" parent="1" vertex="1">
          <mxGeometry x="1000" y="70" width="322" height="322" as="geometry" />
        </mxCell>
        <mxCell id="ulQrxE13SRcMPfscdwj9-67" value="Data Warehouse" style="whiteSpace=wrap;html=1;aspect=fixed;" parent="1" vertex="1">
          <mxGeometry x="490" y="890" width="95" height="95" as="geometry" />
        </mxCell>
        <mxCell id="ulQrxE13SRcMPfscdwj9-70" style="edgeStyle=orthogonalEdgeStyle;rounded=0;orthogonalLoop=1;jettySize=auto;html=1;exitX=0.5;exitY=1;exitDx=0;exitDy=0;entryX=0.75;entryY=1;entryDx=0;entryDy=0;" parent="1" source="ulQrxE13SRcMPfscdwj9-2" target="ulQrxE13SRcMPfscdwj9-67" edge="1">
          <mxGeometry relative="1" as="geometry">
            <mxPoint x="237.5" y="1040" as="sourcePoint" />
            <mxPoint x="557.5" y="1040" as="targetPoint" />
          </mxGeometry>
        </mxCell>
        <mxCell id="ulQrxE13SRcMPfscdwj9-71" style="edgeStyle=orthogonalEdgeStyle;rounded=0;orthogonalLoop=1;jettySize=auto;html=1;exitX=0.5;exitY=1;exitDx=0;exitDy=0;entryX=0.25;entryY=1;entryDx=0;entryDy=0;" parent="1" source="ulQrxE13SRcMPfscdwj9-3" target="ulQrxE13SRcMPfscdwj9-67" edge="1">
          <mxGeometry relative="1" as="geometry">
            <mxPoint x="340" y="1050" as="sourcePoint" />
            <mxPoint x="576.25" y="1050" as="targetPoint" />
          </mxGeometry>
        </mxCell>
        <mxCell id="c9iM5KJUwDxgbsHUVcMs-1" value="Hello world" style="rounded=1;whiteSpace=wrap;html=1;" vertex="1" parent="1">
          <mxGeometry x="40" y="100" width="120" height="60" as="geometry" />
        </mxCell>
      </root>
    </mxGraphModel>
  </diagram>
</mxfile>
